<svg width="139" height="50" viewBox="0 0 139 50" fill="none" xmlns="http://www.w3.org/2000/svg">
<path d="M55.9764 15.0621V10.2087H79.2562V15.0621H70.372V39H64.8194V15.0621H55.9764ZM99.6292 28.3884C99.6292 34.5579 94.4057 39.5758 87.9482 39.5758C81.5319 39.5758 76.2672 34.5579 76.2672 28.3884C76.2672 22.2188 81.5319 17.2009 87.9482 17.2009C94.4057 17.2009 99.6292 22.1777 99.6292 28.3884ZM94.2823 28.3884C94.2823 24.81 91.4854 21.972 87.9482 21.972C84.4521 21.972 81.6141 24.81 81.6141 28.3884C81.6141 31.9667 84.4521 34.8047 87.9482 34.8047C91.4854 34.8047 94.2823 31.9667 94.2823 28.3884ZM102.594 31.2675V17.7356H107.982V30.1981C107.982 32.8304 109.75 34.7636 112.383 34.7636C115.015 34.7636 116.825 32.9127 116.825 30.1981V17.7356H122.213V39H116.825V37.108C115.344 38.6298 113.287 39.4936 110.984 39.4936C106.007 39.4936 102.594 35.8741 102.594 31.2675ZM137.776 22.4656H135.843C133.293 22.4656 131.318 24.3165 131.318 27.5658V39H125.93V17.7356H131.277V20.0389C132.347 18.476 134.033 17.53 136.336 17.53H137.776V22.4656Z" fill="#ffffff"/>
<path d="M42.6672 22.0773C44.7765 23.184 44.8772 26.1666 42.8474 27.413L17.6136 42.9079C15.607 44.1401 13.0174 42.7482 12.938 40.3948L11.9505 11.142C11.8711 8.78865 14.3609 7.2253 16.4461 8.31934L42.6672 22.0773Z" fill="#4D8AE5"/>
</svg>
